<svg width="154" height="27" viewBox="0 0 154 27" fill="none" xmlns="http://www.w3.org/2000/svg">
<path d="M1.704 24V7.08H9.432C10.696 7.08 11.768 7.296 12.648 7.728C13.528 8.16 14.192 8.776 14.64 9.576C15.104 10.376 15.336 11.344 15.336 12.48C15.336 13.616 15.104 14.592 14.64 15.408C14.192 16.208 13.528 16.824 12.648 17.256C11.768 17.688 10.696 17.904 9.432 17.904H5.424V24H1.704ZM5.424 15.024H8.808C9.768 15.024 10.496 14.808 10.992 14.376C11.504 13.944 11.76 13.312 11.76 12.48C11.76 11.648 11.504 11.024 10.992 10.608C10.496 10.192 9.768 9.984 8.808 9.984H5.424V15.024ZM17.3295 24V7.08H20.9535V14.424H20.6175C20.9855 13.64 21.5295 13.04 22.2495 12.624C22.9855 12.192 23.8175 11.976 24.7455 11.976C25.6895 11.976 26.4655 12.16 27.0735 12.528C27.6815 12.88 28.1375 13.424 28.4415 14.16C28.7455 14.88 28.8975 15.8 28.8975 16.92V24H25.2735V17.088C25.2735 16.544 25.2015 16.104 25.0575 15.768C24.9295 15.416 24.7295 15.168 24.4575 15.024C24.2015 14.864 23.8735 14.784 23.4735 14.784C22.9615 14.784 22.5135 14.896 22.1295 15.12C21.7615 15.328 21.4735 15.632 21.2655 16.032C21.0575 16.432 20.9535 16.896 20.9535 17.424V24H17.3295ZM35.5869 24.264C34.7229 24.264 33.9469 24.096 33.2589 23.76C32.5709 23.424 32.0349 22.968 31.6509 22.392C31.2669 21.816 31.0749 21.168 31.0749 20.448C31.0749 19.584 31.2989 18.904 31.7469 18.408C32.1949 17.896 32.9229 17.536 33.9309 17.328C34.9389 17.104 36.2749 16.992 37.9389 16.992H39.2109V18.864H37.9629C37.3389 18.864 36.8109 18.888 36.3789 18.936C35.9629 18.984 35.6189 19.072 35.3469 19.2C35.0749 19.312 34.8749 19.456 34.7469 19.632C34.6349 19.808 34.5789 20.032 34.5789 20.304C34.5789 20.752 34.7309 21.12 35.0349 21.408C35.3549 21.696 35.8109 21.84 36.4029 21.84C36.8669 21.84 37.2749 21.736 37.6269 21.528C37.9949 21.304 38.2829 21.008 38.4909 20.64C38.6989 20.256 38.8029 19.824 38.8029 19.344V16.584C38.8029 15.88 38.6429 15.384 38.3229 15.096C38.0029 14.792 37.4589 14.64 36.6909 14.64C36.0509 14.64 35.3709 14.744 34.6509 14.952C33.9469 15.144 33.2429 15.44 32.5389 15.84L31.5549 13.416C31.9709 13.128 32.4749 12.88 33.0669 12.672C33.6749 12.448 34.3069 12.28 34.9629 12.168C35.6189 12.04 36.2429 11.976 36.8349 11.976C38.0669 11.976 39.0749 12.16 39.8589 12.528C40.6589 12.88 41.2589 13.432 41.6589 14.184C42.0589 14.92 42.2589 15.872 42.2589 17.04V24H38.8749V21.624H39.0429C38.9469 22.168 38.7389 22.64 38.4189 23.04C38.1149 23.424 37.7229 23.728 37.2429 23.952C36.7629 24.16 36.2109 24.264 35.5869 24.264ZM44.9623 24V12.216H48.5143V15.096H48.2743C48.4663 14.136 48.8823 13.4 49.5223 12.888C50.1783 12.36 51.0423 12.056 52.1143 11.976L53.1703 11.904L53.3863 14.952L51.3463 15.168C50.4343 15.248 49.7543 15.512 49.3063 15.96C48.8743 16.408 48.6583 17.056 48.6583 17.904V24H44.9623ZM54.9009 24V12.216H58.4529V14.424H58.1889C58.3969 13.928 58.6849 13.496 59.0529 13.128C59.4209 12.76 59.8609 12.48 60.3729 12.288C60.8849 12.08 61.4449 11.976 62.0529 11.976C62.9649 11.976 63.7249 12.192 64.3329 12.624C64.9409 13.056 65.3729 13.72 65.6289 14.616H65.2929C65.6449 13.8 66.1809 13.16 66.9009 12.696C67.6369 12.216 68.4769 11.976 69.4209 11.976C70.3329 11.976 71.0769 12.16 71.6529 12.528C72.2449 12.88 72.6849 13.424 72.9729 14.16C73.2609 14.88 73.4049 15.8 73.4049 16.92V24H69.7809V17.04C69.7809 16.256 69.6529 15.688 69.3969 15.336C69.1569 14.968 68.7409 14.784 68.1489 14.784C67.7009 14.784 67.3089 14.896 66.9729 15.12C66.6369 15.328 66.3809 15.64 66.2049 16.056C66.0449 16.456 65.9649 16.952 65.9649 17.544V24H62.3409V17.04C62.3409 16.256 62.2129 15.688 61.9569 15.336C61.7169 14.968 61.3009 14.784 60.7089 14.784C60.2449 14.784 59.8529 14.896 59.5329 15.12C59.2129 15.328 58.9649 15.64 58.7889 16.056C58.6129 16.456 58.5249 16.952 58.5249 17.544V24H54.9009ZM80.1651 24.264C79.3011 24.264 78.5251 24.096 77.8371 23.76C77.1491 23.424 76.6131 22.968 76.2291 22.392C75.8451 21.816 75.6531 21.168 75.6531 20.448C75.6531 19.584 75.8771 18.904 76.3251 18.408C76.7731 17.896 77.5011 17.536 78.5091 17.328C79.5171 17.104 80.8531 16.992 82.5171 16.992H83.7891V18.864H82.5411C81.9171 18.864 81.3891 18.888 80.9571 18.936C80.5411 18.984 80.1971 19.072 79.9251 19.2C79.6531 19.312 79.4531 19.456 79.3251 19.632C79.2131 19.808 79.1571 20.032 79.1571 20.304C79.1571 20.752 79.3091 21.12 79.6131 21.408C79.9331 21.696 80.3891 21.84 80.9811 21.84C81.4451 21.84 81.8531 21.736 82.2051 21.528C82.5731 21.304 82.8611 21.008 83.0691 20.64C83.2771 20.256 83.3811 19.824 83.3811 19.344V16.584C83.3811 15.88 83.2211 15.384 82.9011 15.096C82.5811 14.792 82.0371 14.64 81.2691 14.64C80.6291 14.64 79.9491 14.744 79.2291 14.952C78.5251 15.144 77.8211 15.44 77.1171 15.84L76.1331 13.416C76.5491 13.128 77.0531 12.88 77.6451 12.672C78.2531 12.448 78.8851 12.28 79.5411 12.168C80.1971 12.04 80.8211 11.976 81.4131 11.976C82.6451 11.976 83.6531 12.16 84.4371 12.528C85.2371 12.88 85.8371 13.432 86.2371 14.184C86.6371 14.92 86.8371 15.872 86.8371 17.04V24H83.4531V21.624H83.6211C83.5251 22.168 83.3171 22.64 82.9971 23.04C82.6931 23.424 82.3011 23.728 81.8211 23.952C81.3411 24.16 80.7891 24.264 80.1651 24.264Z" fill="#4880FF"/>
<path d="M95.9004 24.264C95.0204 24.264 94.1644 24.184 93.3324 24.024C92.5164 23.88 91.7564 23.672 91.0524 23.4C90.3484 23.112 89.7324 22.776 89.2044 22.392L90.2844 19.464C90.7964 19.816 91.3484 20.12 91.9404 20.376C92.5324 20.632 93.1644 20.832 93.8364 20.976C94.5084 21.104 95.1964 21.168 95.9004 21.168C97.0684 21.168 97.9004 20.992 98.3964 20.64C98.8924 20.272 99.1404 19.816 99.1404 19.272C99.1404 18.968 99.0604 18.704 98.9004 18.48C98.7564 18.256 98.5084 18.064 98.1564 17.904C97.8204 17.728 97.3564 17.584 96.7644 17.472L94.0524 16.896C92.5164 16.576 91.3724 16.032 90.6204 15.264C89.8844 14.48 89.5164 13.456 89.5164 12.192C89.5164 11.104 89.8044 10.16 90.3804 9.36C90.9724 8.56 91.7804 7.936 92.8044 7.488C93.8444 7.04 95.0364 6.816 96.3804 6.816C97.1644 6.816 97.9164 6.896 98.6364 7.056C99.3564 7.2 100.02 7.416 100.628 7.704C101.236 7.992 101.764 8.336 102.212 8.736L101.132 11.472C100.492 10.96 99.7724 10.576 98.9724 10.32C98.1724 10.048 97.3004 9.912 96.3564 9.912C95.6844 9.912 95.1084 10 94.6284 10.176C94.1644 10.352 93.8044 10.6 93.5484 10.92C93.3084 11.24 93.1884 11.608 93.1884 12.024C93.1884 12.488 93.3564 12.864 93.6924 13.152C94.0284 13.44 94.6124 13.672 95.4444 13.848L98.1564 14.424C99.7244 14.76 100.892 15.304 101.66 16.056C102.428 16.792 102.812 17.768 102.812 18.984C102.812 20.04 102.524 20.968 101.948 21.768C101.388 22.552 100.588 23.168 99.5484 23.616C98.5244 24.048 97.3084 24.264 95.9004 24.264ZM104.915 24V7.08H108.539V14.424H108.203C108.571 13.64 109.115 13.04 109.835 12.624C110.571 12.192 111.403 11.976 112.331 11.976C113.275 11.976 114.051 12.16 114.659 12.528C115.267 12.88 115.723 13.424 116.027 14.16C116.331 14.88 116.483 15.8 116.483 16.92V24H112.859V17.088C112.859 16.544 112.787 16.104 112.643 15.768C112.515 15.416 112.315 15.168 112.043 15.024C111.787 14.864 111.459 14.784 111.059 14.784C110.547 14.784 110.099 14.896 109.715 15.12C109.347 15.328 109.059 15.632 108.851 16.032C108.643 16.432 108.539 16.896 108.539 17.424V24H104.915ZM119.045 9.936V6.552H122.957V9.936H119.045ZM119.189 24V12.216H122.813V24H119.189ZM131.395 24.264C129.715 24.264 128.467 23.856 127.651 23.04C126.835 22.224 126.427 21.024 126.427 19.44V14.928H124.195V12.216H126.427V8.76H130.051V12.216H133.531V14.928H130.051V19.296C130.051 19.968 130.203 20.472 130.507 20.808C130.827 21.144 131.331 21.312 132.019 21.312C132.227 21.312 132.443 21.288 132.667 21.24C132.907 21.192 133.163 21.128 133.435 21.048L133.963 23.688C133.627 23.864 133.227 24 132.763 24.096C132.299 24.208 131.843 24.264 131.395 24.264Z" fill="#202224"/>
</svg>
